<?xml version="1.0" encoding="UTF-8" standalone="no"?>
<!DOCTYPE svg PUBLIC "-//W3C//DTD SVG 1.1//EN"
 "http://www.w3.org/Graphics/SVG/1.1/DTD/svg11.dtd">


<svg width="467" height="195" viewBox="0 0 467 195" fill="#050505" xmlns="http://www.w3.org/2000/svg" role="img" aria-labelledby="descId">
  <title id="titleId">Simon Narduzzi&apos;s PhD Stats, Rank: C+</title>
  <desc id="descId"/>
  <style>
    .header {
            font: 600 18px &apos;Segoe UI&apos;, Ubuntu, Sans-Serif;
            fill: #4f40df;
            animation: fadeInAnimation 0.8s ease-in-out forwards;
          }
          @supports(-moz-appearance: auto) {
            /* Selector detects Firefox */
            .header { font-size: 15.5px; }
          }
          
    .stat {
      font: 600 14px &apos;Segoe UI&apos;, Ubuntu, &quot;Helvetica Neue&quot;, Sans-Serif; fill: #fefefe;
    }
    @supports(-moz-appearance: auto) {
      /* Selector detects Firefox */
      .stat { font-size:12px; }
    }
    .stagger {
      opacity: 0;
      animation: fadeInAnimation 0.3s ease-in-out forwards;
    }
    .rank-text {
      font: 800 24px &apos;Segoe UI&apos;, Ubuntu, Sans-Serif; fill: #fefefe;
      animation: scaleInAnimation 0.3s ease-in-out forwards;
    }
    .rank-text-small {
      font: 800 12px &apos;Segoe UI&apos;, Ubuntu, Sans-Serif; fill: #fefefe;
      animation: scaleInAnimation 0.3s ease-in-out forwards;
    }
    .rank-percentile-header {
      font-size: 14px;
    }
    .rank-percentile-text {
      font-size: 16px;
    }
    .not_bold { font-weight: 400 }
    .bold { font-weight: 700 }
    .icon {
      display: block;
    }

    .rank-circle-rim {
      stroke: #5439b5;
      fill: none;
      stroke-width: 6;
      opacity: 0.7;
    }
    .rank-circle {
      stroke: #4f40df;
      stroke-dasharray: 410;
      fill: none;
      stroke-width: 6;
      stroke-linecap: round;
      opacity: 0.8;
      transform-origin: -10px 8px;
      transform: rotate(-90deg);
      animation: rankAnimation 1s forwards ease-in-out;
    }
    
    @keyframes rankAnimation {
      from {
        stroke-dashoffset: 251.32741228718345;
      }
      to {
        stroke-dashoffset: 218.3203561931395;
      }
    }

    /* Animations */
    @keyframes scaleInAnimation {
      from {
        transform: translate(-5px, 5px) scale(0);
      }
      to {
        transform: translate(-5px, 5px) scale(1);
      }
    }
    @keyframes fadeInAnimation {
      from {
        opacity: 0;
      }
      to {
        opacity: 1;
      }
    }
  </style>
  <rect data-testid="card-bg" x="0.5" y="0.5" rx="4.5" height="99%" stroke="#FEFEFE" width="466" fill="#050505" stroke-opacity="1"/>
  <g data-testid="card-title" transform="translate(25, 35)">
    <g transform="translate(0, 0)">
      <text x="0" y="0" class="header" data-testid="header">Simon Narduzzi&apos;s PhD Stats</text>
    </g>
  </g>
  <g data-testid="main-card-body" transform="translate(0, 55)">
    <g data-testid="rank-circle" transform="translate(390.5, 47.5)">
      <circle class="rank-circle-rim" cx="-10" cy="8" r="40"/>
      <circle class="rank-circle" cx="-10" cy="8" r="40"/>
      <g class="rank-text">
        <text x="-5" y="-4" alignment-baseline="central" dominant-baseline="central" text-anchor="middle" data-testid="level-rank-icon">
          3+
        </text>
      </g>
      <g class="rank-text-small">
        <text x="-5" y="12" alignment-baseline="central" dominant-baseline="central" text-anchor="middle" data-testid="level-rank-icon">
          years
        </text>
      </g>
    </g>
    <svg x="0" y="0">
      <g transform="translate(0, 0)">
        <g class="stagger" style="animation-delay: 450ms" transform="translate(25, 0)">
          <svg data-testid="icon" class="icon" viewBox="0 0 16 16" version="1.1" width="16" height="16" fill="#bd4791">
            <path fill-rule="evenodd" d="M2 2.5A2.5 2.5 0 014.5 0h8.75a.75.75 0 01.75.75v12.5a.75.75 0 01-.75.75h-2.5a.75.75 0 110-1.5h1.75v-2h-8a1 1 0 00-.714 1.7.75.75 0 01-1.072 1.05A2.495 2.495 0 012 11.5v-9zm10.5-1V9h-8c-.356 0-.694.074-1 .208V2.5a1 1 0 011-1h8zM5 12.25v3.25a.25.25 0 00.4.2l1.45-1.087a.25.25 0 01.3 0L8.6 15.7a.25.25 0 00.4-.2v-3.25a.25.25 0 00-.25-.25h-3.5a.25.25 0 00-.25.25z"/>
          </svg>
          <text class="stat  bold" x="25" y="12.5">Papers to date:</text>
          <text class="stat  bold" x="219.01" y="12.5" data-testid="stars">6</text>
        </g>
      </g>
      <g transform="translate(0, 25)">
        <g class="stagger" style="animation-delay: 600ms" transform="translate(25, 0)">
          <svg data-testid="icon" class="icon" viewBox="0 0 16 16" version="1.1" width="16" height="16" fill="#ecc30b">
            <path fill-rule="evenodd" d="M8 .25a.75.75 0 01.673.418l1.882 3.815 4.21.612a.75.75 0 01.416 1.279l-3.046 2.97.719 4.192a.75.75 0 01-1.088.791L8 12.347l-3.766 1.98a.75.75 0 01-1.088-.79l.72-4.194L.818 6.374a.75.75 0 01.416-1.28l4.21-.611L7.327.668A.75.75 0 018 .25zm0 2.445L6.615 5.5a.75.75 0 01-.564.41l-3.097.45 2.24 2.184a.75.75 0 01.216.664l-.528 3.084 2.769-1.456a.75.75 0 01.698 0l2.77 1.456-.53-3.084a.75.75 0 01.216-.664l2.24-2.183-3.096-.45a.75.75 0 01-.564-.41L8 2.694v.001z"/>
          </svg>
          <text class="stat  bold" x="25" y="12.5">First author:</text>
          <text class="stat  bold" x="219.01" y="12.5" data-testid="commits">4</text>
        </g>
      </g>
      <g transform="translate(0, 50)">
        <g class="stagger" style="animation-delay: 750ms" transform="translate(25, 0)">
          <svg data-testid="icon" class="icon" viewBox="0 0 16 16" version="1.1" width="16" height="16" fill="#1db954">
            <path d="M8 0a8 8 0 1 0 0 16A8 8 0 0 0 8 0zm3.669 11.538a.498.498 0 0 1-.686.165c-1.879-1.147-4.243-1.407-7.028-.77a.499.499 0 0 1-.222-.973c3.048-.696 5.662-.397 7.77.892a.5.5 0 0 1 .166.686zm.979-2.178a.624.624 0 0 1-.858.205c-2.15-1.321-5.428-1.704-7.972-.932a.625.625 0 0 1-.362-1.194c2.905-.881 6.517-.454 8.986 1.063a.624.624 0 0 1 .206.858zm.084-2.268C10.154 5.56 5.9 5.419 3.438 6.166a.748.748 0 1 1-.434-1.432c2.825-.857 7.523-.692 10.492 1.07a.747.747 0 1 1-.764 1.288z"/>
          </svg>
          <text class="stat  bold" x="25" y="12.5">Total hours on Spotify (2023):</text>
          <text class="stat  bold" x="219.01" y="12.5" data-testid="prs">15K</text>
        </g>
      </g>
      <g transform="translate(0, 75)">
        <g class="stagger" style="animation-delay: 900ms" transform="translate(25, 0)">
          <svg data-testid="icon" class="icon" viewBox="0 0 16 16" version="1.1" width="16" height="16" fill="#fefefe">
            <path d="M8.5 5.5a.5.5 0 0 0-1 0v3.362l-1.429 2.38a.5.5 0 1 0 .858.515l1.5-2.5A.5.5 0 0 0 8.5 9V5.5z"/>
            <path d="M6.5 0a.5.5 0 0 0 0 1H7v1.07a7.001 7.001 0 0 0-3.273 12.474l-.602.602a.5.5 0 0 0 .707.708l.746-.746A6.97 6.97 0 0 0 8 16a6.97 6.97 0 0 0 3.422-.892l.746.746a.5.5 0 0 0 .707-.708l-.601-.602A7.001 7.001 0 0 0 9 2.07V1h.5a.5.5 0 0 0 0-1h-3zm1.038 3.018a6.093 6.093 0 0 1 .924 0 6 6 0 1 1-.924 0zM0 3.5c0 .753.333 1.429.86 1.887A8.035 8.035 0 0 1 4.387 1.86 2.5 2.5 0 0 0 0 3.5zM13.5 1c-.753 0-1.429.333-1.887.86a8.035 8.035 0 0 1 3.527 3.527A2.5 2.5 0 0 0 13.5 1z"/>
          </svg>
          <text class="stat  bold" x="25" y="12.5">YTG (Years To Graduation)</text>
          <text class="stat  bold" x="219.01" y="12.5" data-testid="contribs">?</text>
        </g>
      </g>
    </svg>
  </g>
</svg>
